<?xml version="1.0" encoding="utf-8"?><svg xmlns="http://www.w3.org/2000/svg" xmlns:xlink="http://www.w3.org/1999/xlink"><symbol viewBox="0 0 25 26" id="cross" xmlns="http://www.w3.org/2000/svg"><path fill-rule="evenodd" clip-rule="evenodd" d="M5.31381 5.81381C5.73223 5.3954 6.41062 5.3954 6.82904 5.81381L12.5 11.4848L18.171 5.81381C18.5894 5.3954 19.2678 5.3954 19.6862 5.81381C20.1046 6.23223 20.1046 6.91062 19.6862 7.32904L14.0152 13L19.6862 18.671C20.1046 19.0894 20.1046 19.7678 19.6862 20.1862C19.2678 20.6046 18.5894 20.6046 18.171 20.1862L12.5 14.5152L6.82904 20.1862C6.41062 20.6046 5.73223 20.6046 5.31381 20.1862C4.8954 19.7678 4.8954 19.0894 5.31381 18.671L10.9848 13L5.31381 7.32904C4.8954 6.91062 4.8954 6.23223 5.31381 5.81381Z"/></symbol><symbol viewBox="0 0 20 20" id="menu" xmlns="http://www.w3.org/2000/svg"><path fill-rule="evenodd" d="M18 5a1 1 0 100-2H2a1 1 0 000 2h16zm-4 4a1 1 0 100-2H6a1 1 0 100 2h8zm5 3a1 1 0 01-1 1H2a1 1 0 110-2h16a1 1 0 011 1zm-5 5a1 1 0 100-2H6a1 1 0 100 2h8z"/></symbol></svg>